<?xml version="1.0" encoding="UTF-8"?>
<svg version="1.1" xmlns="http://www.w3.org/2000/svg" width="98" height="100">
<path d="M0 0 C32.34 0 64.68 0 98 0 C98 33 98 66 98 100 C65.66 100 33.32 100 0 100 C0 67 0 34 0 0 Z " fill="#FDFDFD" transform="translate(0,0)"/>
<path d="M0 0 C0.74701172 -0.020625 1.49402344 -0.04125 2.26367188 -0.0625 C7.99928694 -0.10278527 11.80453107 1.23192175 16.5625 4.5625 C18.30985796 7.18353694 18.07027832 9.18777345 17.6875 12.25 C16.5625 14.125 16.5625 14.125 14.6875 15.25 C11.5 15.4375 11.5 15.4375 8.6875 15.25 C8.419375 14.156875 8.15125 13.06375 7.875 11.9375 C6.62413823 7.89154818 6.62413823 7.89154818 3.6875 5.25 C1.17460325 4.88786432 1.17460325 4.88786432 -1.5 5.0625 C-2.40105469 5.08957031 -3.30210938 5.11664062 -4.23046875 5.14453125 C-4.91753906 5.17933594 -5.60460938 5.21414062 -6.3125 5.25 C-7.92270217 8.47040433 -7.91525795 11.76739849 -7.3125 15.25 C-5.16643478 18.14612236 -5.16643478 18.14612236 -2.3125 20.25 C-1.2915625 21.11625 -1.2915625 21.11625 -0.25 22 C1.74636733 23.28797893 3.36154572 23.83465102 5.6875 24.25 C5.6875 24.91 5.6875 25.57 5.6875 26.25 C6.7084375 26.559375 6.7084375 26.559375 7.75 26.875 C12.48062721 29.08933614 16.45133562 32.15389519 19.125 36.6875 C20.41719506 42.5741664 20.0133304 47.16103826 17.046875 52.3828125 C14.44469595 55.95706992 11.93257641 57.91565581 7.6875 59.25 C-0.85079304 60.08450395 -11.79323596 60.95811408 -18.75 55.25 C-21.43646277 51.81132765 -21.57830376 49.59146146 -21.3125 45.25 C-20.6525 44.26 -19.9925 43.27 -19.3125 42.25 C-15.6875 42.0625 -15.6875 42.0625 -12.3125 42.25 C-12.13074219 42.86488281 -11.94898438 43.47976562 -11.76171875 44.11328125 C-11.38466797 45.32564453 -11.38466797 45.32564453 -11 46.5625 C-10.63455078 47.76326172 -10.63455078 47.76326172 -10.26171875 48.98828125 C-9.21804911 51.47504964 -8.50639344 52.68293326 -6.3125 54.25 C-3.58019695 54.82775884 -3.58019695 54.82775884 -0.625 54.9375 C0.36886719 55.00324219 1.36273438 55.06898437 2.38671875 55.13671875 C3.14597656 55.17410156 3.90523437 55.21148437 4.6875 55.25 C4.6875 54.59 4.6875 53.93 4.6875 53.25 C5.43 52.63125 5.43 52.63125 6.1875 52 C7.93819797 50.25919549 7.93819797 50.25919549 8.1875 47.375 C7.51302874 43.15955465 5.86068755 42.07248906 2.6875 39.25 C0.26831123 37.52710911 -2.23494983 35.95338281 -4.75 34.375 C-16.88536269 26.53141192 -16.88536269 26.53141192 -19.3125 19.25 C-19.72360876 15.02822931 -19.78793683 11.37603459 -18.125 7.4375 C-12.79317435 1.002538 -8.03671393 0.05462507 0 0 Z " fill="#0C0C0C" transform="translate(41.3125,17.75)"/>
<path d="M0 0 C2.5 0.5625 2.5 0.5625 4.875 2.6875 C6.5 5.5625 6.5 5.5625 6.375 8.75 C5.5 11.5625 5.5 11.5625 3.5 13.5625 C-2.55240175 14.11271834 -2.55240175 14.11271834 -5.4375 12.4375 C-7.02990283 9.62737736 -6.95319325 7.73485276 -6.5 4.5625 C-4.52113939 1.77743692 -3.34067767 0.75165248 0 0 Z " fill="#E7733C" transform="translate(76.5,63.4375)"/>
</svg>
